<svg xmlns="http://www.w3.org/2000/svg" viewBox="0 0 512 512">
  <defs>
    <linearGradient id="grad" x1="0%" y1="0%" x2="100%" y2="100%">
      <stop offset="0%" style="stop-color:#10b981;stop-opacity:1" />
      <stop offset="100%" style="stop-color:#059669;stop-opacity:1" />
    </linearGradient>
    <filter id="glow">
      <feGaussianBlur stdDeviation="15" result="coloredBlur"/>
      <feMerge>
        <feMergeNode in="coloredBlur"/>
        <feMergeNode in="SourceGraphic"/>
      </feMerge>
    </filter>
  </defs>
  
  <rect width="512" height="512" rx="120" fill="#0f172a" />
  
  <g transform="translate(106, 106) scale(0.6)" filter="url(#glow)">
    <path fill="url(#grad)" d="M256,48C141.1,48,48,141.1,48,256s93.1,208,208,208s208-93.1,208-208S370.9,48,256,48z M256,416c-88.4,0-160-71.6-160-160S167.6,96,256,96s160,71.6,160,160S344.4,416,256,416z"/>
    <path fill="#fff" d="M276,192h-40v-32h40c8.8,0,16-7.2,16-16s-7.2-16-16-16h-40c-26.5,0-48,21.5-48,48s21.5,48,48,48h40v32h-40c-8.8,0-16,7.2-16,16s7.2,16,16,16h40c26.5,0,48-21.5,48-48s-21.5-48-48-48h-40v-32h40c8.8,0,16-7.2,16-16S284.8,192,276,192z"/>
    <path fill="#fff" d="M256,112c-8.8,0-16,7.2-16,16v16c-44.1,0-80,35.9-80,80s35.9,80,80,80v16c0,8.8,7.2,16,16,16s16-7.2,16-16v-16c44.1,0,80-35.9,80-80s-35.9-80-80-80v-16C272,119.2,264.8,112,256,112z"/>
  </g>
</svg>
